<?xml version="1.0" encoding="UTF-8"?><svg xmlns="http://www.w3.org/2000/svg" xmlns:xlink="http://www.w3.org/1999/xlink" contentScriptType="text/ecmascript" width="375" zoomAndPan="magnify" contentStyleType="text/css" viewBox="0 0 375 374.999991" height="374.999991" preserveAspectRatio="xMidYMid meet" version="1.0"><defs><clipPath id="clip-0"><path d="M 5.953125 5.953125 L 368.953125 5.953125 L 368.953125 368.953125 L 5.953125 368.953125 Z M 5.953125 5.953125 " clip-rule="nonzero"/></clipPath><clipPath id="clip-1"><path d="M 368.953125 187.453125 C 368.953125 190.421875 368.878906 193.390625 368.734375 196.359375 C 368.585938 199.324219 368.371094 202.285156 368.078125 205.242188 C 367.785156 208.199219 367.421875 211.144531 366.988281 214.082031 C 366.550781 217.023438 366.042969 219.949219 365.464844 222.859375 C 364.886719 225.773438 364.234375 228.671875 363.511719 231.554688 C 362.789062 234.433594 362 237.296875 361.136719 240.136719 C 360.273438 242.980469 359.34375 245.800781 358.34375 248.597656 C 357.339844 251.394531 356.273438 254.164062 355.136719 256.910156 C 354 259.652344 352.796875 262.367188 351.527344 265.054688 C 350.257812 267.738281 348.921875 270.390625 347.519531 273.011719 C 346.121094 275.628906 344.65625 278.214844 343.128906 280.761719 C 341.601562 283.308594 340.015625 285.816406 338.363281 288.289062 C 336.714844 290.757812 335.003906 293.183594 333.234375 295.570312 C 331.464844 297.957031 329.636719 300.296875 327.753906 302.59375 C 325.867188 304.890625 323.929688 307.140625 321.933594 309.339844 C 319.941406 311.539062 317.890625 313.691406 315.792969 315.792969 C 313.691406 317.890625 311.539062 319.941406 309.339844 321.933594 C 307.140625 323.929688 304.890625 325.867188 302.59375 327.753906 C 300.296875 329.636719 297.957031 331.464844 295.570312 333.234375 C 293.183594 335.003906 290.757812 336.714844 288.289062 338.363281 C 285.816406 340.015625 283.308594 341.601562 280.761719 343.128906 C 278.214844 344.65625 275.628906 346.121094 273.011719 347.519531 C 270.390625 348.921875 267.738281 350.257812 265.054688 351.527344 C 262.367188 352.796875 259.652344 354 256.910156 355.136719 C 254.164062 356.273438 251.394531 357.339844 248.597656 358.34375 C 245.800781 359.34375 242.980469 360.273438 240.136719 361.136719 C 237.296875 362 234.433594 362.789062 231.554688 363.511719 C 228.671875 364.234375 225.773438 364.886719 222.859375 365.464844 C 219.949219 366.042969 217.023438 366.550781 214.082031 366.988281 C 211.144531 367.421875 208.199219 367.785156 205.242188 368.078125 C 202.285156 368.367188 199.324219 368.585938 196.359375 368.734375 C 193.390625 368.878906 190.421875 368.953125 187.453125 368.953125 C 184.480469 368.953125 181.511719 368.878906 178.546875 368.734375 C 175.578125 368.585938 172.617188 368.367188 169.660156 368.078125 C 166.707031 367.785156 163.757812 367.421875 160.820312 366.988281 C 157.882812 366.550781 154.957031 366.042969 152.042969 365.464844 C 149.128906 364.886719 146.234375 364.234375 143.351562 363.511719 C 140.46875 362.789062 137.609375 362 134.765625 361.136719 C 131.921875 360.273438 129.101562 359.34375 126.304688 358.34375 C 123.507812 357.339844 120.738281 356.273438 117.996094 355.136719 C 115.25 354 112.535156 352.796875 109.851562 351.527344 C 107.164062 350.257812 104.511719 348.921875 101.894531 347.519531 C 99.273438 346.121094 96.691406 344.65625 94.140625 343.128906 C 91.59375 341.601562 89.085938 340.015625 86.617188 338.363281 C 84.144531 336.714844 81.71875 335.003906 79.332031 333.234375 C 76.945312 331.464844 74.605469 329.636719 72.308594 327.753906 C 70.011719 325.867188 67.765625 323.929688 65.5625 321.933594 C 63.363281 319.941406 61.210938 317.890625 59.113281 315.792969 C 57.011719 313.691406 54.964844 311.539062 52.96875 309.339844 C 50.972656 307.140625 49.035156 304.890625 47.152344 302.59375 C 45.265625 300.296875 43.4375 297.957031 41.667969 295.570312 C 39.898438 293.183594 38.191406 290.757812 36.539062 288.289062 C 34.890625 285.816406 33.300781 283.308594 31.773438 280.761719 C 30.246094 278.214844 28.785156 275.628906 27.382812 273.011719 C 25.984375 270.390625 24.648438 267.738281 23.378906 265.054688 C 22.109375 262.367188 20.90625 259.652344 19.769531 256.910156 C 18.632812 254.164062 17.5625 251.394531 16.5625 248.597656 C 15.5625 245.800781 14.628906 242.980469 13.765625 240.136719 C 12.90625 237.296875 12.113281 234.433594 11.390625 231.554688 C 10.667969 228.671875 10.019531 225.773438 9.441406 222.859375 C 8.859375 219.949219 8.351562 217.023438 7.917969 214.082031 C 7.480469 211.144531 7.117188 208.199219 6.824219 205.242188 C 6.535156 202.285156 6.316406 199.324219 6.171875 196.359375 C 6.023438 193.390625 5.953125 190.421875 5.953125 187.453125 C 5.953125 184.480469 6.023438 181.511719 6.171875 178.546875 C 6.316406 175.578125 6.535156 172.617188 6.824219 169.660156 C 7.117188 166.707031 7.480469 163.757812 7.917969 160.820312 C 8.351562 157.882812 8.859375 154.957031 9.441406 152.042969 C 10.019531 149.128906 10.667969 146.234375 11.390625 143.351562 C 12.113281 140.46875 12.90625 137.609375 13.765625 134.765625 C 14.628906 131.921875 15.5625 129.101562 16.5625 126.304688 C 17.5625 123.507812 18.632812 120.738281 19.769531 117.996094 C 20.90625 115.25 22.109375 112.535156 23.378906 109.851562 C 24.648438 107.164062 25.984375 104.511719 27.382812 101.894531 C 28.785156 99.273438 30.246094 96.691406 31.773438 94.140625 C 33.300781 91.59375 34.890625 89.085938 36.539062 86.617188 C 38.191406 84.144531 39.898438 81.71875 41.667969 79.332031 C 43.4375 76.945312 45.265625 74.605469 47.152344 72.308594 C 49.035156 70.011719 50.972656 67.765625 52.96875 65.5625 C 54.964844 63.363281 57.011719 61.210938 59.113281 59.113281 C 61.210938 57.011719 63.363281 54.964844 65.5625 52.96875 C 67.765625 50.972656 70.011719 49.035156 72.308594 47.152344 C 74.605469 45.265625 76.945312 43.4375 79.332031 41.667969 C 81.71875 39.898438 84.144531 38.191406 86.617188 36.539062 C 89.085938 34.890625 91.59375 33.300781 94.140625 31.773438 C 96.691406 30.246094 99.273438 28.785156 101.894531 27.382812 C 104.511719 25.984375 107.164062 24.648438 109.851562 23.378906 C 112.535156 22.109375 115.25 20.90625 117.996094 19.769531 C 120.738281 18.632812 123.507812 17.5625 126.304688 16.5625 C 129.101562 15.5625 131.921875 14.628906 134.765625 13.765625 C 137.609375 12.90625 140.46875 12.113281 143.351562 11.390625 C 146.234375 10.667969 149.128906 10.019531 152.042969 9.441406 C 154.957031 8.859375 157.882812 8.351562 160.820312 7.917969 C 163.757812 7.480469 166.707031 7.117188 169.660156 6.824219 C 172.617188 6.535156 175.578125 6.316406 178.546875 6.171875 C 181.511719 6.023438 184.480469 5.953125 187.453125 5.953125 C 190.421875 5.953125 193.390625 6.023438 196.359375 6.171875 C 199.324219 6.316406 202.285156 6.535156 205.242188 6.824219 C 208.199219 7.117188 211.144531 7.480469 214.082031 7.917969 C 217.023438 8.351562 219.949219 8.859375 222.859375 9.441406 C 225.773438 10.019531 228.671875 10.667969 231.554688 11.390625 C 234.433594 12.113281 237.296875 12.90625 240.136719 13.765625 C 242.980469 14.628906 245.800781 15.5625 248.597656 16.5625 C 251.394531 17.5625 254.164062 18.632812 256.910156 19.769531 C 259.652344 20.90625 262.367188 22.109375 265.054688 23.378906 C 267.738281 24.648438 270.390625 25.984375 273.011719 27.382812 C 275.628906 28.785156 278.214844 30.246094 280.761719 31.773438 C 283.308594 33.300781 285.816406 34.890625 288.289062 36.539062 C 290.757812 38.191406 293.183594 39.898438 295.570312 41.667969 C 297.957031 43.4375 300.296875 45.265625 302.59375 47.152344 C 304.890625 49.035156 307.140625 50.972656 309.339844 52.96875 C 311.539062 54.964844 313.691406 57.011719 315.792969 59.113281 C 317.890625 61.210938 319.941406 63.363281 321.933594 65.5625 C 323.929688 67.765625 325.867188 70.011719 327.753906 72.308594 C 329.636719 74.605469 331.464844 76.945312 333.234375 79.332031 C 335.003906 81.71875 336.714844 84.144531 338.363281 86.617188 C 340.015625 89.085938 341.601562 91.59375 343.128906 94.140625 C 344.65625 96.691406 346.121094 99.273438 347.519531 101.894531 C 348.921875 104.511719 350.257812 107.164062 351.527344 109.851562 C 352.796875 112.535156 354 115.25 355.136719 117.996094 C 356.273438 120.738281 357.339844 123.507812 358.34375 126.304688 C 359.34375 129.101562 360.273438 131.921875 361.136719 134.765625 C 362 137.609375 362.789062 140.46875 363.511719 143.351562 C 364.234375 146.234375 364.886719 149.128906 365.464844 152.042969 C 366.042969 154.957031 366.550781 157.882812 366.988281 160.820312 C 367.421875 163.757812 367.785156 166.707031 368.078125 169.660156 C 368.371094 172.617188 368.585938 175.578125 368.734375 178.546875 C 368.878906 181.511719 368.953125 184.480469 368.953125 187.453125 Z M 368.953125 187.453125 " clip-rule="nonzero"/></clipPath><linearGradient x1="-0.0000000088426" gradientTransform="matrix(362.999991, 0, 0, 362.999991, 5.951999, 5.952)" xmlns:xlink="http://www.w3.org/1999/xlink" y1="-0.0000000087559" x2="1.004902" gradientUnits="userSpaceOnUse" y2="0.995049" xlink:type="simple" xlink:actuate="onLoad" id="linear-pattern-0" xlink:show="other"><stop stop-opacity="1" stop-color="rgb(100%, 34.098816%, 34.098816%)" offset="0"/><stop stop-opacity="1" stop-color="rgb(99.755859%, 34.00116%, 34.32312%)" offset="0.00390625"/><stop stop-opacity="1" stop-color="rgb(99.511719%, 33.905029%, 34.547424%)" offset="0.0078125"/><stop stop-opacity="1" stop-color="rgb(99.267578%, 33.807373%, 34.771729%)" offset="0.0117188"/><stop stop-opacity="1" stop-color="rgb(99.024963%, 33.711243%, 34.996033%)" offset="0.015625"/><stop stop-opacity="1" stop-color="rgb(98.780823%, 33.613586%, 35.220337%)" offset="0.0195312"/><stop stop-opacity="1" stop-color="rgb(98.538208%, 33.517456%, 35.444641%)" offset="0.0234375"/><stop stop-opacity="1" stop-color="rgb(98.294067%, 33.4198%, 35.668945%)" offset="0.0273438"/><stop stop-opacity="1" stop-color="rgb(98.049927%, 33.323669%, 35.89325%)" offset="0.03125"/><stop stop-opacity="1" stop-color="rgb(97.805786%, 33.226013%, 36.117554%)" offset="0.0351563"/><stop stop-opacity="1" stop-color="rgb(97.563171%, 33.129883%, 36.341858%)" offset="0.0390625"/><stop stop-opacity="1" stop-color="rgb(97.319031%, 33.032227%, 36.566162%)" offset="0.0429688"/><stop stop-opacity="1" stop-color="rgb(97.076416%, 32.936096%, 36.790466%)" offset="0.046875"/><stop stop-opacity="1" stop-color="rgb(96.832275%, 32.83844%, 37.014771%)" offset="0.0507813"/><stop stop-opacity="1" stop-color="rgb(96.589661%, 32.74231%, 37.239075%)" offset="0.0546875"/><stop stop-opacity="1" stop-color="rgb(96.34552%, 32.644653%, 37.463379%)" offset="0.0585938"/><stop stop-opacity="1" stop-color="rgb(96.101379%, 32.548523%, 37.687683%)" offset="0.0625"/><stop stop-opacity="1" stop-color="rgb(95.857239%, 32.450867%, 37.911987%)" offset="0.0664062"/><stop stop-opacity="1" stop-color="rgb(95.614624%, 32.354736%, 38.136292%)" offset="0.0703125"/><stop stop-opacity="1" stop-color="rgb(95.370483%, 32.25708%, 38.360596%)" offset="0.0742188"/><stop stop-opacity="1" stop-color="rgb(95.127869%, 32.16095%, 38.5849%)" offset="0.078125"/><stop stop-opacity="1" stop-color="rgb(94.883728%, 32.063293%, 38.809204%)" offset="0.0820312"/><stop stop-opacity="1" stop-color="rgb(94.641113%, 31.967163%, 39.033508%)" offset="0.0859375"/><stop stop-opacity="1" stop-color="rgb(94.396973%, 31.869507%, 39.257812%)" offset="0.0898438"/><stop stop-opacity="1" stop-color="rgb(94.152832%, 31.773376%, 39.482117%)" offset="0.09375"/><stop stop-opacity="1" stop-color="rgb(93.908691%, 31.67572%, 39.706421%)" offset="0.0976563"/><stop stop-opacity="1" stop-color="rgb(93.666077%, 31.57959%, 39.930725%)" offset="0.101563"/><stop stop-opacity="1" stop-color="rgb(93.421936%, 31.481934%, 40.155029%)" offset="0.105469"/><stop stop-opacity="1" stop-color="rgb(93.179321%, 31.385803%, 40.379333%)" offset="0.109375"/><stop stop-opacity="1" stop-color="rgb(92.935181%, 31.288147%, 40.603638%)" offset="0.113281"/><stop stop-opacity="1" stop-color="rgb(92.692566%, 31.192017%, 40.827942%)" offset="0.117188"/><stop stop-opacity="1" stop-color="rgb(92.448425%, 31.09436%, 41.052246%)" offset="0.121094"/><stop stop-opacity="1" stop-color="rgb(92.204285%, 30.99823%, 41.27655%)" offset="0.125"/><stop stop-opacity="1" stop-color="rgb(91.960144%, 30.900574%, 41.500854%)" offset="0.128906"/><stop stop-opacity="1" stop-color="rgb(91.717529%, 30.804443%, 41.725159%)" offset="0.132812"/><stop stop-opacity="1" stop-color="rgb(91.473389%, 30.706787%, 41.949463%)" offset="0.136719"/><stop stop-opacity="1" stop-color="rgb(91.230774%, 30.610657%, 42.173767%)" offset="0.140625"/><stop stop-opacity="1" stop-color="rgb(90.986633%, 30.513%, 42.398071%)" offset="0.144531"/><stop stop-opacity="1" stop-color="rgb(90.744019%, 30.41687%, 42.622375%)" offset="0.148438"/><stop stop-opacity="1" stop-color="rgb(90.499878%, 30.319214%, 42.84668%)" offset="0.152344"/><stop stop-opacity="1" stop-color="rgb(90.255737%, 30.223083%, 43.070984%)" offset="0.15625"/><stop stop-opacity="1" stop-color="rgb(90.011597%, 30.125427%, 43.293762%)" offset="0.160156"/><stop stop-opacity="1" stop-color="rgb(89.768982%, 30.029297%, 43.518066%)" offset="0.164062"/><stop stop-opacity="1" stop-color="rgb(89.524841%, 29.931641%, 43.742371%)" offset="0.167969"/><stop stop-opacity="1" stop-color="rgb(89.282227%, 29.83551%, 43.966675%)" offset="0.171875"/><stop stop-opacity="1" stop-color="rgb(89.038086%, 29.737854%, 44.190979%)" offset="0.175781"/><stop stop-opacity="1" stop-color="rgb(88.795471%, 29.641724%, 44.415283%)" offset="0.179688"/><stop stop-opacity="1" stop-color="rgb(88.551331%, 29.544067%, 44.639587%)" offset="0.183594"/><stop stop-opacity="1" stop-color="rgb(88.30719%, 29.447937%, 44.863892%)" offset="0.1875"/><stop stop-opacity="1" stop-color="rgb(88.063049%, 29.350281%, 45.088196%)" offset="0.191406"/><stop stop-opacity="1" stop-color="rgb(87.820435%, 29.25415%, 45.3125%)" offset="0.195312"/><stop stop-opacity="1" stop-color="rgb(87.576294%, 29.156494%, 45.536804%)" offset="0.199219"/><stop stop-opacity="1" stop-color="rgb(87.333679%, 29.060364%, 45.761108%)" offset="0.203125"/><stop stop-opacity="1" stop-color="rgb(87.089539%, 28.962708%, 45.985413%)" offset="0.207031"/><stop stop-opacity="1" stop-color="rgb(86.845398%, 28.866577%, 46.209717%)" offset="0.210938"/><stop stop-opacity="1" stop-color="rgb(86.601257%, 28.768921%, 46.434021%)" offset="0.214844"/><stop stop-opacity="1" stop-color="rgb(86.358643%, 28.672791%, 46.658325%)" offset="0.21875"/><stop stop-opacity="1" stop-color="rgb(86.114502%, 28.575134%, 46.882629%)" offset="0.222656"/><stop stop-opacity="1" stop-color="rgb(85.871887%, 28.479004%, 47.106934%)" offset="0.226562"/><stop stop-opacity="1" stop-color="rgb(85.627747%, 28.381348%, 47.331238%)" offset="0.230469"/><stop stop-opacity="1" stop-color="rgb(85.385132%, 28.285217%, 47.555542%)" offset="0.234375"/><stop stop-opacity="1" stop-color="rgb(85.140991%, 28.187561%, 47.779846%)" offset="0.238281"/><stop stop-opacity="1" stop-color="rgb(84.896851%, 28.091431%, 48.00415%)" offset="0.242188"/><stop stop-opacity="1" stop-color="rgb(84.65271%, 27.993774%, 48.228455%)" offset="0.246094"/><stop stop-opacity="1" stop-color="rgb(84.410095%, 27.897644%, 48.452759%)" offset="0.25"/><stop stop-opacity="1" stop-color="rgb(84.165955%, 27.799988%, 48.677063%)" offset="0.253906"/><stop stop-opacity="1" stop-color="rgb(83.92334%, 27.703857%, 48.901367%)" offset="0.257812"/><stop stop-opacity="1" stop-color="rgb(83.679199%, 27.606201%, 49.125671%)" offset="0.261719"/><stop stop-opacity="1" stop-color="rgb(83.436584%, 27.510071%, 49.349976%)" offset="0.265625"/><stop stop-opacity="1" stop-color="rgb(83.192444%, 27.412415%, 49.57428%)" offset="0.269531"/><stop stop-opacity="1" stop-color="rgb(82.948303%, 27.316284%, 49.798584%)" offset="0.273438"/><stop stop-opacity="1" stop-color="rgb(82.704163%, 27.218628%, 50.022888%)" offset="0.277344"/><stop stop-opacity="1" stop-color="rgb(82.461548%, 27.122498%, 50.247192%)" offset="0.28125"/><stop stop-opacity="1" stop-color="rgb(82.217407%, 27.024841%, 50.471497%)" offset="0.285156"/><stop stop-opacity="1" stop-color="rgb(81.974792%, 26.928711%, 50.695801%)" offset="0.289063"/><stop stop-opacity="1" stop-color="rgb(81.730652%, 26.831055%, 50.920105%)" offset="0.292969"/><stop stop-opacity="1" stop-color="rgb(81.488037%, 26.734924%, 51.144409%)" offset="0.296875"/><stop stop-opacity="1" stop-color="rgb(81.243896%, 26.637268%, 51.368713%)" offset="0.300781"/><stop stop-opacity="1" stop-color="rgb(80.999756%, 26.541138%, 51.593018%)" offset="0.304688"/><stop stop-opacity="1" stop-color="rgb(80.755615%, 26.443481%, 51.817322%)" offset="0.308594"/><stop stop-opacity="1" stop-color="rgb(80.513%, 26.347351%, 52.041626%)" offset="0.3125"/><stop stop-opacity="1" stop-color="rgb(80.26886%, 26.249695%, 52.26593%)" offset="0.316406"/><stop stop-opacity="1" stop-color="rgb(80.026245%, 26.153564%, 52.490234%)" offset="0.320313"/><stop stop-opacity="1" stop-color="rgb(79.782104%, 26.055908%, 52.714539%)" offset="0.324219"/><stop stop-opacity="1" stop-color="rgb(79.53949%, 25.959778%, 52.938843%)" offset="0.328125"/><stop stop-opacity="1" stop-color="rgb(79.295349%, 25.862122%, 53.163147%)" offset="0.332031"/><stop stop-opacity="1" stop-color="rgb(79.051208%, 25.765991%, 53.387451%)" offset="0.335938"/><stop stop-opacity="1" stop-color="rgb(78.807068%, 25.668335%, 53.611755%)" offset="0.339844"/><stop stop-opacity="1" stop-color="rgb(78.564453%, 25.572205%, 53.83606%)" offset="0.34375"/><stop stop-opacity="1" stop-color="rgb(78.320312%, 25.474548%, 54.060364%)" offset="0.347656"/><stop stop-opacity="1" stop-color="rgb(78.077698%, 25.378418%, 54.284668%)" offset="0.351563"/><stop stop-opacity="1" stop-color="rgb(77.833557%, 25.280762%, 54.508972%)" offset="0.355469"/><stop stop-opacity="1" stop-color="rgb(77.590942%, 25.184631%, 54.733276%)" offset="0.359375"/><stop stop-opacity="1" stop-color="rgb(77.346802%, 25.086975%, 54.956055%)" offset="0.363281"/><stop stop-opacity="1" stop-color="rgb(77.102661%, 24.990845%, 55.180359%)" offset="0.367188"/><stop stop-opacity="1" stop-color="rgb(76.858521%, 24.893188%, 55.404663%)" offset="0.371094"/><stop stop-opacity="1" stop-color="rgb(76.615906%, 24.797058%, 55.628967%)" offset="0.375"/><stop stop-opacity="1" stop-color="rgb(76.371765%, 24.699402%, 55.853271%)" offset="0.378906"/><stop stop-opacity="1" stop-color="rgb(76.12915%, 24.603271%, 56.077576%)" offset="0.382813"/><stop stop-opacity="1" stop-color="rgb(75.88501%, 24.505615%, 56.30188%)" offset="0.386719"/><stop stop-opacity="1" stop-color="rgb(75.640869%, 24.409485%, 56.526184%)" offset="0.390625"/><stop stop-opacity="1" stop-color="rgb(75.396729%, 24.311829%, 56.750488%)" offset="0.394531"/><stop stop-opacity="1" stop-color="rgb(75.154114%, 24.215698%, 56.974792%)" offset="0.398438"/><stop stop-opacity="1" stop-color="rgb(74.909973%, 24.118042%, 57.199097%)" offset="0.402344"/><stop stop-opacity="1" stop-color="rgb(74.667358%, 24.021912%, 57.423401%)" offset="0.40625"/><stop stop-opacity="1" stop-color="rgb(74.423218%, 23.925781%, 57.647705%)" offset="0.410156"/><stop stop-opacity="1" stop-color="rgb(74.180603%, 23.829651%, 57.872009%)" offset="0.414063"/><stop stop-opacity="1" stop-color="rgb(73.936462%, 23.731995%, 58.096313%)" offset="0.417969"/><stop stop-opacity="1" stop-color="rgb(73.692322%, 23.635864%, 58.320618%)" offset="0.421875"/><stop stop-opacity="1" stop-color="rgb(73.448181%, 23.538208%, 58.544922%)" offset="0.425781"/><stop stop-opacity="1" stop-color="rgb(73.205566%, 23.442078%, 58.769226%)" offset="0.429688"/><stop stop-opacity="1" stop-color="rgb(72.961426%, 23.344421%, 58.99353%)" offset="0.433594"/><stop stop-opacity="1" stop-color="rgb(72.718811%, 23.248291%, 59.217834%)" offset="0.4375"/><stop stop-opacity="1" stop-color="rgb(72.47467%, 23.150635%, 59.442139%)" offset="0.441406"/><stop stop-opacity="1" stop-color="rgb(72.232056%, 23.054504%, 59.666443%)" offset="0.445313"/><stop stop-opacity="1" stop-color="rgb(71.987915%, 22.956848%, 59.890747%)" offset="0.449219"/><stop stop-opacity="1" stop-color="rgb(71.743774%, 22.860718%, 60.115051%)" offset="0.453125"/><stop stop-opacity="1" stop-color="rgb(71.499634%, 22.763062%, 60.339355%)" offset="0.457031"/><stop stop-opacity="1" stop-color="rgb(71.257019%, 22.666931%, 60.56366%)" offset="0.460938"/><stop stop-opacity="1" stop-color="rgb(71.012878%, 22.569275%, 60.787964%)" offset="0.464844"/><stop stop-opacity="1" stop-color="rgb(70.770264%, 22.473145%, 61.012268%)" offset="0.46875"/><stop stop-opacity="1" stop-color="rgb(70.526123%, 22.375488%, 61.236572%)" offset="0.472656"/><stop stop-opacity="1" stop-color="rgb(70.283508%, 22.279358%, 61.460876%)" offset="0.476563"/><stop stop-opacity="1" stop-color="rgb(70.039368%, 22.181702%, 61.685181%)" offset="0.480469"/><stop stop-opacity="1" stop-color="rgb(69.795227%, 22.085571%, 61.909485%)" offset="0.484375"/><stop stop-opacity="1" stop-color="rgb(69.551086%, 21.987915%, 62.133789%)" offset="0.488281"/><stop stop-opacity="1" stop-color="rgb(69.308472%, 21.891785%, 62.358093%)" offset="0.492188"/><stop stop-opacity="1" stop-color="rgb(69.064331%, 21.794128%, 62.582397%)" offset="0.496094"/><stop stop-opacity="1" stop-color="rgb(68.821716%, 21.697998%, 62.806702%)" offset="0.5"/><stop stop-opacity="1" stop-color="rgb(68.577576%, 21.600342%, 63.031006%)" offset="0.503906"/><stop stop-opacity="1" stop-color="rgb(68.334961%, 21.504211%, 63.25531%)" offset="0.507812"/><stop stop-opacity="1" stop-color="rgb(68.09082%, 21.406555%, 63.479614%)" offset="0.511719"/><stop stop-opacity="1" stop-color="rgb(67.84668%, 21.310425%, 63.703918%)" offset="0.515625"/><stop stop-opacity="1" stop-color="rgb(67.602539%, 21.212769%, 63.928223%)" offset="0.519531"/><stop stop-opacity="1" stop-color="rgb(67.359924%, 21.116638%, 64.152527%)" offset="0.523438"/><stop stop-opacity="1" stop-color="rgb(67.115784%, 21.018982%, 64.376831%)" offset="0.527344"/><stop stop-opacity="1" stop-color="rgb(66.873169%, 20.922852%, 64.601135%)" offset="0.53125"/><stop stop-opacity="1" stop-color="rgb(66.629028%, 20.825195%, 64.825439%)" offset="0.535156"/><stop stop-opacity="1" stop-color="rgb(66.386414%, 20.729065%, 65.049744%)" offset="0.539062"/><stop stop-opacity="1" stop-color="rgb(66.142273%, 20.631409%, 65.274048%)" offset="0.542969"/><stop stop-opacity="1" stop-color="rgb(65.898132%, 20.535278%, 65.498352%)" offset="0.546875"/><stop stop-opacity="1" stop-color="rgb(65.653992%, 20.437622%, 65.722656%)" offset="0.550781"/><stop stop-opacity="1" stop-color="rgb(65.411377%, 20.341492%, 65.94696%)" offset="0.554687"/><stop stop-opacity="1" stop-color="rgb(65.167236%, 20.243835%, 66.171265%)" offset="0.558594"/><stop stop-opacity="1" stop-color="rgb(64.924622%, 20.147705%, 66.395569%)" offset="0.5625"/><stop stop-opacity="1" stop-color="rgb(64.680481%, 20.050049%, 66.619873%)" offset="0.566406"/><stop stop-opacity="1" stop-color="rgb(64.437866%, 19.953918%, 66.844177%)" offset="0.570312"/><stop stop-opacity="1" stop-color="rgb(64.193726%, 19.856262%, 67.066956%)" offset="0.574219"/><stop stop-opacity="1" stop-color="rgb(63.949585%, 19.760132%, 67.29126%)" offset="0.578125"/><stop stop-opacity="1" stop-color="rgb(63.705444%, 19.662476%, 67.515564%)" offset="0.582031"/><stop stop-opacity="1" stop-color="rgb(63.46283%, 19.566345%, 67.739868%)" offset="0.585937"/><stop stop-opacity="1" stop-color="rgb(63.218689%, 19.468689%, 67.964172%)" offset="0.589844"/><stop stop-opacity="1" stop-color="rgb(62.976074%, 19.372559%, 68.188477%)" offset="0.59375"/><stop stop-opacity="1" stop-color="rgb(62.731934%, 19.274902%, 68.412781%)" offset="0.597656"/><stop stop-opacity="1" stop-color="rgb(62.487793%, 19.178772%, 68.637085%)" offset="0.601562"/><stop stop-opacity="1" stop-color="rgb(62.243652%, 19.081116%, 68.861389%)" offset="0.605469"/><stop stop-opacity="1" stop-color="rgb(62.001038%, 18.984985%, 69.085693%)" offset="0.609375"/><stop stop-opacity="1" stop-color="rgb(61.756897%, 18.887329%, 69.309998%)" offset="0.613281"/><stop stop-opacity="1" stop-color="rgb(61.514282%, 18.791199%, 69.534302%)" offset="0.617187"/><stop stop-opacity="1" stop-color="rgb(61.270142%, 18.693542%, 69.758606%)" offset="0.621094"/><stop stop-opacity="1" stop-color="rgb(61.027527%, 18.597412%, 69.98291%)" offset="0.625"/><stop stop-opacity="1" stop-color="rgb(60.783386%, 18.499756%, 70.207214%)" offset="0.628906"/><stop stop-opacity="1" stop-color="rgb(60.539246%, 18.403625%, 70.431519%)" offset="0.632813"/><stop stop-opacity="1" stop-color="rgb(60.295105%, 18.305969%, 70.655823%)" offset="0.636719"/><stop stop-opacity="1" stop-color="rgb(60.05249%, 18.209839%, 70.880127%)" offset="0.640625"/><stop stop-opacity="1" stop-color="rgb(59.80835%, 18.112183%, 71.104431%)" offset="0.644531"/><stop stop-opacity="1" stop-color="rgb(59.565735%, 18.016052%, 71.328735%)" offset="0.648438"/><stop stop-opacity="1" stop-color="rgb(59.321594%, 17.918396%, 71.55304%)" offset="0.652344"/><stop stop-opacity="1" stop-color="rgb(59.078979%, 17.822266%, 71.777344%)" offset="0.65625"/><stop stop-opacity="1" stop-color="rgb(58.834839%, 17.724609%, 72.001648%)" offset="0.660156"/><stop stop-opacity="1" stop-color="rgb(58.590698%, 17.628479%, 72.225952%)" offset="0.664063"/><stop stop-opacity="1" stop-color="rgb(58.346558%, 17.530823%, 72.450256%)" offset="0.667969"/><stop stop-opacity="1" stop-color="rgb(58.103943%, 17.434692%, 72.674561%)" offset="0.671875"/><stop stop-opacity="1" stop-color="rgb(57.859802%, 17.337036%, 72.898865%)" offset="0.675781"/><stop stop-opacity="1" stop-color="rgb(57.617188%, 17.240906%, 73.123169%)" offset="0.679688"/><stop stop-opacity="1" stop-color="rgb(57.373047%, 17.14325%, 73.347473%)" offset="0.683594"/><stop stop-opacity="1" stop-color="rgb(57.130432%, 17.047119%, 73.571777%)" offset="0.6875"/><stop stop-opacity="1" stop-color="rgb(56.886292%, 16.949463%, 73.796082%)" offset="0.691406"/><stop stop-opacity="1" stop-color="rgb(56.642151%, 16.853333%, 74.020386%)" offset="0.695313"/><stop stop-opacity="1" stop-color="rgb(56.39801%, 16.755676%, 74.24469%)" offset="0.699219"/><stop stop-opacity="1" stop-color="rgb(56.155396%, 16.659546%, 74.468994%)" offset="0.703125"/><stop stop-opacity="1" stop-color="rgb(55.911255%, 16.56189%, 74.693298%)" offset="0.707031"/><stop stop-opacity="1" stop-color="rgb(55.66864%, 16.465759%, 74.917603%)" offset="0.710938"/><stop stop-opacity="1" stop-color="rgb(55.4245%, 16.368103%, 75.141907%)" offset="0.714844"/><stop stop-opacity="1" stop-color="rgb(55.181885%, 16.271973%, 75.366211%)" offset="0.71875"/><stop stop-opacity="1" stop-color="rgb(54.937744%, 16.174316%, 75.590515%)" offset="0.722656"/><stop stop-opacity="1" stop-color="rgb(54.693604%, 16.078186%, 75.814819%)" offset="0.726562"/><stop stop-opacity="1" stop-color="rgb(54.449463%, 15.98053%, 76.039124%)" offset="0.730469"/><stop stop-opacity="1" stop-color="rgb(54.206848%, 15.884399%, 76.263428%)" offset="0.734375"/><stop stop-opacity="1" stop-color="rgb(53.962708%, 15.786743%, 76.487732%)" offset="0.738281"/><stop stop-opacity="1" stop-color="rgb(53.720093%, 15.690613%, 76.712036%)" offset="0.742188"/><stop stop-opacity="1" stop-color="rgb(53.475952%, 15.592957%, 76.93634%)" offset="0.746094"/><stop stop-opacity="1" stop-color="rgb(53.233337%, 15.496826%, 77.160645%)" offset="0.75"/><stop stop-opacity="1" stop-color="rgb(52.989197%, 15.39917%, 77.384949%)" offset="0.753906"/><stop stop-opacity="1" stop-color="rgb(52.745056%, 15.30304%, 77.609253%)" offset="0.757812"/><stop stop-opacity="1" stop-color="rgb(52.500916%, 15.205383%, 77.833557%)" offset="0.761719"/><stop stop-opacity="1" stop-color="rgb(52.258301%, 15.109253%, 78.057861%)" offset="0.765625"/><stop stop-opacity="1" stop-color="rgb(52.01416%, 15.011597%, 78.282166%)" offset="0.769531"/><stop stop-opacity="1" stop-color="rgb(51.771545%, 14.915466%, 78.50647%)" offset="0.773438"/><stop stop-opacity="1" stop-color="rgb(51.527405%, 14.81781%, 78.729248%)" offset="0.777344"/><stop stop-opacity="1" stop-color="rgb(51.283264%, 14.72168%, 78.953552%)" offset="0.78125"/><stop stop-opacity="1" stop-color="rgb(51.039124%, 14.624023%, 79.177856%)" offset="0.785156"/><stop stop-opacity="1" stop-color="rgb(50.796509%, 14.527893%, 79.402161%)" offset="0.789062"/><stop stop-opacity="1" stop-color="rgb(50.552368%, 14.430237%, 79.626465%)" offset="0.792969"/><stop stop-opacity="1" stop-color="rgb(50.309753%, 14.334106%, 79.850769%)" offset="0.796875"/><stop stop-opacity="1" stop-color="rgb(50.065613%, 14.23645%, 80.075073%)" offset="0.800781"/><stop stop-opacity="1" stop-color="rgb(49.822998%, 14.14032%, 80.299377%)" offset="0.804687"/><stop stop-opacity="1" stop-color="rgb(49.578857%, 14.042664%, 80.523682%)" offset="0.808594"/><stop stop-opacity="1" stop-color="rgb(49.334717%, 13.946533%, 80.747986%)" offset="0.8125"/><stop stop-opacity="1" stop-color="rgb(49.090576%, 13.848877%, 80.97229%)" offset="0.816406"/><stop stop-opacity="1" stop-color="rgb(48.847961%, 13.752747%, 81.196594%)" offset="0.820312"/><stop stop-opacity="1" stop-color="rgb(48.603821%, 13.65509%, 81.420898%)" offset="0.824219"/><stop stop-opacity="1" stop-color="rgb(48.361206%, 13.55896%, 81.645203%)" offset="0.828125"/><stop stop-opacity="1" stop-color="rgb(48.117065%, 13.461304%, 81.869507%)" offset="0.832031"/><stop stop-opacity="1" stop-color="rgb(47.874451%, 13.365173%, 82.093811%)" offset="0.835937"/><stop stop-opacity="1" stop-color="rgb(47.63031%, 13.267517%, 82.318115%)" offset="0.839844"/><stop stop-opacity="1" stop-color="rgb(47.386169%, 13.171387%, 82.542419%)" offset="0.84375"/><stop stop-opacity="1" stop-color="rgb(47.142029%, 13.07373%, 82.766724%)" offset="0.847656"/><stop stop-opacity="1" stop-color="rgb(46.899414%, 12.9776%, 82.991028%)" offset="0.851562"/><stop stop-opacity="1" stop-color="rgb(46.655273%, 12.879944%, 83.215332%)" offset="0.855469"/><stop stop-opacity="1" stop-color="rgb(46.412659%, 12.783813%, 83.439636%)" offset="0.859375"/><stop stop-opacity="1" stop-color="rgb(46.168518%, 12.686157%, 83.66394%)" offset="0.863281"/><stop stop-opacity="1" stop-color="rgb(45.925903%, 12.590027%, 83.888245%)" offset="0.867187"/><stop stop-opacity="1" stop-color="rgb(45.681763%, 12.492371%, 84.112549%)" offset="0.871094"/><stop stop-opacity="1" stop-color="rgb(45.437622%, 12.39624%, 84.336853%)" offset="0.875"/><stop stop-opacity="1" stop-color="rgb(45.193481%, 12.298584%, 84.561157%)" offset="0.878906"/><stop stop-opacity="1" stop-color="rgb(44.950867%, 12.202454%, 84.785461%)" offset="0.882813"/><stop stop-opacity="1" stop-color="rgb(44.706726%, 12.104797%, 85.009766%)" offset="0.886719"/><stop stop-opacity="1" stop-color="rgb(44.464111%, 12.008667%, 85.23407%)" offset="0.890625"/><stop stop-opacity="1" stop-color="rgb(44.219971%, 11.911011%, 85.458374%)" offset="0.894531"/><stop stop-opacity="1" stop-color="rgb(43.977356%, 11.81488%, 85.682678%)" offset="0.898438"/><stop stop-opacity="1" stop-color="rgb(43.733215%, 11.717224%, 85.906982%)" offset="0.902344"/><stop stop-opacity="1" stop-color="rgb(43.489075%, 11.621094%, 86.131287%)" offset="0.90625"/><stop stop-opacity="1" stop-color="rgb(43.244934%, 11.523438%, 86.355591%)" offset="0.910156"/><stop stop-opacity="1" stop-color="rgb(43.002319%, 11.427307%, 86.579895%)" offset="0.914063"/><stop stop-opacity="1" stop-color="rgb(42.758179%, 11.329651%, 86.804199%)" offset="0.917969"/><stop stop-opacity="1" stop-color="rgb(42.515564%, 11.233521%, 87.028503%)" offset="0.921875"/><stop stop-opacity="1" stop-color="rgb(42.271423%, 11.135864%, 87.252808%)" offset="0.925781"/><stop stop-opacity="1" stop-color="rgb(42.028809%, 11.039734%, 87.477112%)" offset="0.929688"/><stop stop-opacity="1" stop-color="rgb(41.784668%, 10.942078%, 87.701416%)" offset="0.933594"/><stop stop-opacity="1" stop-color="rgb(41.540527%, 10.845947%, 87.92572%)" offset="0.9375"/><stop stop-opacity="1" stop-color="rgb(41.296387%, 10.748291%, 88.150024%)" offset="0.941406"/><stop stop-opacity="1" stop-color="rgb(41.053772%, 10.652161%, 88.374329%)" offset="0.945313"/><stop stop-opacity="1" stop-color="rgb(40.809631%, 10.554504%, 88.598633%)" offset="0.949219"/><stop stop-opacity="1" stop-color="rgb(40.567017%, 10.458374%, 88.822937%)" offset="0.953125"/><stop stop-opacity="1" stop-color="rgb(40.322876%, 10.360718%, 89.047241%)" offset="0.957031"/><stop stop-opacity="1" stop-color="rgb(40.080261%, 10.264587%, 89.271545%)" offset="0.960938"/><stop stop-opacity="1" stop-color="rgb(39.836121%, 10.166931%, 89.49585%)" offset="0.964844"/><stop stop-opacity="1" stop-color="rgb(39.59198%, 10.070801%, 89.720154%)" offset="0.96875"/><stop stop-opacity="1" stop-color="rgb(39.347839%, 9.973145%, 89.944458%)" offset="0.972656"/><stop stop-opacity="1" stop-color="rgb(39.105225%, 9.877014%, 90.168762%)" offset="0.976562"/><stop stop-opacity="1" stop-color="rgb(38.861084%, 9.779358%, 90.393066%)" offset="0.980469"/><stop stop-opacity="1" stop-color="rgb(38.618469%, 9.683228%, 90.617371%)" offset="0.984375"/><stop stop-opacity="1" stop-color="rgb(38.374329%, 9.585571%, 90.840149%)" offset="0.988281"/><stop stop-opacity="1" stop-color="rgb(38.130188%, 9.489441%, 91.064453%)" offset="0.992188"/><stop stop-opacity="1" stop-color="rgb(37.886047%, 9.391785%, 91.288757%)" offset="0.996094"/><stop stop-opacity="1" stop-color="rgb(37.643433%, 9.295654%, 91.513062%)" offset="1"/></linearGradient><clipPath id="clip-2"><path d="M 190 101.390625 L 298 101.390625 L 298 273.890625 L 190 273.890625 Z M 190 101.390625 " clip-rule="nonzero"/></clipPath><clipPath id="clip-3"><path d="M 77 101.390625 L 185 101.390625 L 185 273.890625 L 77 273.890625 Z M 77 101.390625 " clip-rule="nonzero"/></clipPath></defs><g clip-path="url(#clip-0)"><g clip-path="url(#clip-1)"><path fill="url(#linear-pattern-0)" d="M 5.953125 5.953125 L 5.953125 368.953125 L 368.953125 368.953125 L 368.953125 5.953125 Z M 5.953125 5.953125 " fill-rule="nonzero"/></g></g><path fill="rgb(96.078491%, 97.24884%, 98.039246%)" d="M 292.8125 187.332031 C 292.8125 188.667969 292.792969 190 292.753906 191.332031 C 292.714844 192.664062 292.65625 193.996094 292.578125 195.324219 C 292.5 196.652344 292.402344 197.976562 292.285156 199.296875 C 292.167969 200.613281 292.03125 201.929688 291.875 203.238281 C 291.71875 204.546875 291.546875 205.847656 291.351562 207.140625 C 291.15625 208.4375 290.945312 209.722656 290.710938 211 C 290.480469 212.277344 290.230469 213.542969 289.960938 214.796875 C 289.691406 216.054688 289.40625 217.300781 289.101562 218.53125 C 288.792969 219.765625 288.472656 220.984375 288.128906 222.191406 C 287.789062 223.398438 287.429688 224.589844 287.054688 225.765625 C 286.675781 226.941406 286.285156 228.101562 285.871094 229.246094 C 285.460938 230.390625 285.035156 231.519531 284.59375 232.628906 C 284.148438 233.738281 283.6875 234.828125 283.214844 235.898438 C 282.738281 236.972656 282.246094 238.023438 281.742188 239.054688 C 281.234375 240.085938 280.710938 241.09375 280.175781 242.082031 C 279.640625 243.074219 279.089844 244.039062 278.523438 244.980469 C 277.960938 245.925781 277.382812 246.84375 276.792969 247.742188 C 276.199219 248.636719 275.59375 249.507812 274.976562 250.355469 C 274.359375 251.203125 273.730469 252.023438 273.089844 252.816406 C 272.449219 253.613281 271.796875 254.378906 271.132812 255.121094 C 270.46875 255.863281 269.796875 256.574219 269.109375 257.261719 C 268.425781 257.949219 267.730469 258.605469 267.027344 259.234375 C 266.324219 259.863281 265.609375 260.464844 264.886719 261.035156 C 264.167969 261.605469 263.4375 262.144531 262.699219 262.65625 C 261.960938 263.164062 261.21875 263.644531 260.464844 264.09375 C 259.714844 264.546875 258.957031 264.964844 258.191406 265.351562 C 257.429688 265.738281 256.660156 266.09375 255.886719 266.417969 C 255.109375 266.742188 254.332031 267.035156 253.546875 267.292969 C 252.765625 267.554688 251.980469 267.78125 251.191406 267.980469 C 250.398438 268.175781 249.609375 268.339844 248.8125 268.46875 C 248.019531 268.597656 247.222656 268.699219 246.425781 268.761719 C 245.628906 268.828125 244.832031 268.863281 244.03125 268.863281 C 243.234375 268.863281 242.4375 268.828125 241.636719 268.761719 C 240.839844 268.699219 240.046875 268.597656 239.25 268.46875 C 238.457031 268.339844 237.664062 268.175781 236.875 267.980469 C 236.085938 267.78125 235.296875 267.554688 234.515625 267.292969 C 233.734375 267.035156 232.953125 266.742188 232.179688 266.417969 C 231.40625 266.09375 230.636719 265.738281 229.871094 265.351562 C 229.109375 264.964844 228.351562 264.546875 227.597656 264.09375 C 226.847656 263.644531 226.101562 263.164062 225.363281 262.65625 C 224.628906 262.144531 223.898438 261.605469 223.175781 261.035156 C 222.453125 260.464844 221.742188 259.863281 221.035156 259.234375 C 220.332031 258.605469 219.636719 257.949219 218.953125 257.261719 C 218.269531 256.574219 217.59375 255.863281 216.929688 255.121094 C 216.265625 254.378906 215.613281 253.613281 214.972656 252.816406 C 214.332031 252.023438 213.703125 251.203125 213.085938 250.355469 C 212.46875 249.507812 211.863281 248.636719 211.273438 247.742188 C 210.679688 246.84375 210.101562 245.925781 209.539062 244.980469 C 208.972656 244.039062 208.425781 243.074219 207.886719 242.082031 C 207.351562 241.09375 206.832031 240.085938 206.324219 239.054688 C 205.816406 238.023438 205.328125 236.972656 204.851562 235.898438 C 204.375 234.828125 203.914062 233.738281 203.472656 232.628906 C 203.027344 231.519531 202.601562 230.390625 202.191406 229.246094 C 201.78125 228.101562 201.386719 226.941406 201.011719 225.765625 C 200.636719 224.589844 200.277344 223.398438 199.933594 222.191406 C 199.59375 220.984375 199.269531 219.765625 198.964844 218.53125 C 198.660156 217.300781 198.371094 216.054688 198.101562 214.796875 C 197.832031 213.542969 197.582031 212.277344 197.351562 211 C 197.121094 209.722656 196.90625 208.4375 196.714844 207.140625 C 196.519531 205.847656 196.34375 204.546875 196.1875 203.238281 C 196.03125 201.929688 195.894531 200.613281 195.78125 199.296875 C 195.664062 197.976562 195.566406 196.652344 195.484375 195.324219 C 195.40625 193.996094 195.347656 192.664062 195.308594 191.332031 C 195.269531 190 195.25 188.667969 195.25 187.332031 C 195.25 185.996094 195.269531 184.664062 195.308594 183.332031 C 195.347656 182 195.40625 180.667969 195.484375 179.339844 C 195.566406 178.011719 195.664062 176.6875 195.78125 175.371094 C 195.894531 174.050781 196.03125 172.734375 196.1875 171.425781 C 196.34375 170.117188 196.519531 168.816406 196.714844 167.523438 C 196.90625 166.226562 197.121094 164.941406 197.351562 163.664062 C 197.582031 162.386719 197.832031 161.121094 198.101562 159.867188 C 198.371094 158.609375 198.660156 157.363281 198.964844 156.132812 C 199.269531 154.898438 199.59375 153.679688 199.933594 152.472656 C 200.277344 151.269531 200.636719 150.078125 201.011719 148.898438 C 201.386719 147.722656 201.78125 146.5625 202.191406 145.417969 C 202.601562 144.273438 203.027344 143.144531 203.472656 142.035156 C 203.914062 140.925781 204.375 139.835938 204.851562 138.765625 C 205.328125 137.695312 205.816406 136.640625 206.324219 135.609375 C 206.832031 134.578125 207.351562 133.570312 207.886719 132.582031 C 208.425781 131.589844 208.972656 130.625 209.539062 129.683594 C 210.101562 128.738281 210.679688 127.820312 211.273438 126.921875 C 211.863281 126.027344 212.46875 125.15625 213.085938 124.308594 C 213.703125 123.460938 214.332031 122.640625 214.972656 121.847656 C 215.613281 121.050781 216.265625 120.285156 216.929688 119.542969 C 217.59375 118.800781 218.269531 118.089844 218.953125 117.402344 C 219.636719 116.714844 220.332031 116.058594 221.035156 115.429688 C 221.742188 114.800781 222.453125 114.199219 223.175781 113.628906 C 223.898438 113.058594 224.628906 112.519531 225.363281 112.007812 C 226.101562 111.5 226.847656 111.019531 227.597656 110.570312 C 228.351562 110.121094 229.109375 109.699219 229.871094 109.3125 C 230.636719 108.925781 231.40625 108.570312 232.179688 108.246094 C 232.953125 107.921875 233.734375 107.628906 234.515625 107.371094 C 235.296875 107.109375 236.085938 106.882812 236.875 106.683594 C 237.664062 106.488281 238.457031 106.328125 239.25 106.195312 C 240.046875 106.066406 240.839844 105.964844 241.636719 105.902344 C 242.4375 105.835938 243.234375 105.804688 244.03125 105.804688 C 244.832031 105.804688 245.628906 105.835938 246.425781 105.902344 C 247.222656 105.964844 248.019531 106.066406 248.8125 106.195312 C 249.609375 106.328125 250.398438 106.488281 251.191406 106.683594 C 251.980469 106.882812 252.765625 107.109375 253.546875 107.371094 C 254.332031 107.628906 255.109375 107.921875 255.886719 108.246094 C 256.660156 108.570312 257.429688 108.925781 258.191406 109.3125 C 258.957031 109.699219 259.714844 110.121094 260.464844 110.570312 C 261.21875 111.019531 261.960938 111.5 262.699219 112.007812 C 263.4375 112.519531 264.167969 113.058594 264.886719 113.628906 C 265.609375 114.199219 266.324219 114.800781 267.027344 115.429688 C 267.730469 116.058594 268.425781 116.714844 269.109375 117.402344 C 269.796875 118.089844 270.46875 118.800781 271.132812 119.542969 C 271.796875 120.285156 272.449219 121.050781 273.089844 121.847656 C 273.730469 122.640625 274.359375 123.460938 274.976562 124.308594 C 275.59375 125.15625 276.199219 126.027344 276.792969 126.921875 C 277.382812 127.820312 277.960938 128.738281 278.523438 129.683594 C 279.089844 130.625 279.640625 131.589844 280.175781 132.582031 C 280.710938 133.570312 281.234375 134.578125 281.742188 135.609375 C 282.246094 136.640625 282.738281 137.695312 283.214844 138.765625 C 283.6875 139.835938 284.148438 140.925781 284.59375 142.035156 C 285.035156 143.144531 285.460938 144.273438 285.871094 145.417969 C 286.285156 146.5625 286.675781 147.722656 287.054688 148.898438 C 287.429688 150.078125 287.789062 151.269531 288.128906 152.472656 C 288.472656 153.679688 288.792969 154.898438 289.101562 156.132812 C 289.40625 157.363281 289.691406 158.609375 289.960938 159.867188 C 290.230469 161.121094 290.480469 162.386719 290.710938 163.664062 C 290.945312 164.941406 291.15625 166.226562 291.351562 167.523438 C 291.546875 168.816406 291.71875 170.117188 291.875 171.425781 C 292.03125 172.734375 292.167969 174.050781 292.285156 175.371094 C 292.402344 176.6875 292.5 178.011719 292.578125 179.339844 C 292.65625 180.667969 292.714844 182 292.753906 183.332031 C 292.792969 184.664062 292.8125 185.996094 292.8125 187.332031 Z M 292.8125 187.332031 " fill-opacity="1" fill-rule="nonzero"/><g clip-path="url(#clip-2)"><path fill="rgb(88.238525%, 90.979004%, 92.939758%)" d="M 244.03125 273.464844 C 214.101562 273.464844 190.652344 235.632812 190.652344 187.332031 C 190.652344 139.03125 214.101562 101.199219 244.03125 101.199219 C 273.964844 101.199219 297.414062 139.03125 297.414062 187.332031 C 297.414062 235.632812 273.964844 273.464844 244.03125 273.464844 Z M 244.03125 110.40625 C 219.667969 110.40625 199.851562 144.914062 199.851562 187.332031 C 199.851562 229.75 219.667969 264.257812 244.03125 264.257812 C 268.394531 264.257812 288.210938 229.75 288.210938 187.332031 C 288.210938 144.914062 268.394531 110.40625 244.03125 110.40625 Z M 244.03125 110.40625 " fill-opacity="1" fill-rule="nonzero"/></g><path fill="rgb(0%, 0%, 0%)" d="M 248.921875 187.332031 C 248.921875 188.136719 248.882812 188.9375 248.800781 189.738281 C 248.722656 190.539062 248.605469 191.332031 248.449219 192.121094 C 248.292969 192.910156 248.097656 193.691406 247.863281 194.460938 C 247.632812 195.230469 247.359375 195.984375 247.054688 196.730469 C 246.746094 197.472656 246.402344 198.199219 246.023438 198.90625 C 245.644531 199.617188 245.230469 200.304688 244.785156 200.972656 C 244.339844 201.644531 243.859375 202.289062 243.351562 202.910156 C 242.84375 203.53125 242.304688 204.125 241.734375 204.695312 C 241.167969 205.265625 240.570312 205.804688 239.949219 206.3125 C 239.328125 206.824219 238.683594 207.300781 238.015625 207.75 C 237.347656 208.195312 236.660156 208.609375 235.953125 208.988281 C 235.242188 209.367188 234.515625 209.710938 233.773438 210.019531 C 233.03125 210.324219 232.277344 210.597656 231.507812 210.828125 C 230.738281 211.0625 229.960938 211.257812 229.171875 211.414062 C 228.382812 211.574219 227.589844 211.691406 226.789062 211.769531 C 225.992188 211.847656 225.191406 211.886719 224.386719 211.886719 C 223.582031 211.886719 222.78125 211.847656 221.980469 211.769531 C 221.179688 211.691406 220.386719 211.574219 219.601562 211.414062 C 218.8125 211.257812 218.03125 211.0625 217.265625 210.828125 C 216.496094 210.597656 215.738281 210.324219 214.996094 210.019531 C 214.253906 209.710938 213.527344 209.367188 212.820312 208.988281 C 212.113281 208.609375 211.421875 208.195312 210.753906 207.75 C 210.085938 207.300781 209.441406 206.824219 208.820312 206.3125 C 208.199219 205.804688 207.605469 205.265625 207.039062 204.695312 C 206.46875 204.125 205.929688 203.53125 205.421875 202.910156 C 204.910156 202.289062 204.433594 201.644531 203.988281 200.972656 C 203.539062 200.304688 203.128906 199.617188 202.75 198.90625 C 202.371094 198.199219 202.027344 197.472656 201.71875 196.730469 C 201.410156 195.984375 201.140625 195.230469 200.90625 194.460938 C 200.675781 193.691406 200.480469 192.910156 200.324219 192.121094 C 200.167969 191.332031 200.046875 190.539062 199.96875 189.738281 C 199.890625 188.9375 199.851562 188.136719 199.851562 187.332031 C 199.851562 186.527344 199.890625 185.726562 199.96875 184.925781 C 200.046875 184.125 200.167969 183.332031 200.324219 182.542969 C 200.480469 181.753906 200.675781 180.972656 200.90625 180.203125 C 201.140625 179.433594 201.410156 178.679688 201.71875 177.933594 C 202.027344 177.191406 202.371094 176.464844 202.75 175.757812 C 203.128906 175.046875 203.539062 174.359375 203.988281 173.691406 C 204.433594 173.019531 204.910156 172.375 205.421875 171.753906 C 205.929688 171.132812 206.46875 170.539062 207.039062 169.96875 C 207.605469 169.398438 208.199219 168.859375 208.820312 168.351562 C 209.441406 167.839844 210.085938 167.363281 210.753906 166.914062 C 211.421875 166.46875 212.113281 166.054688 212.820312 165.675781 C 213.527344 165.296875 214.253906 164.953125 214.996094 164.644531 C 215.738281 164.339844 216.496094 164.066406 217.265625 163.835938 C 218.03125 163.601562 218.8125 163.40625 219.601562 163.25 C 220.386719 163.09375 221.179688 162.972656 221.980469 162.894531 C 222.78125 162.816406 223.582031 162.777344 224.386719 162.777344 C 225.191406 162.777344 225.992188 162.816406 226.789062 162.894531 C 227.589844 162.972656 228.382812 163.09375 229.171875 163.25 C 229.960938 163.40625 230.738281 163.601562 231.507812 163.835938 C 232.277344 164.066406 233.03125 164.339844 233.773438 164.644531 C 234.515625 164.953125 235.242188 165.296875 235.953125 165.675781 C 236.660156 166.054688 237.347656 166.46875 238.015625 166.914062 C 238.683594 167.363281 239.328125 167.839844 239.949219 168.351562 C 240.570312 168.859375 241.167969 169.398438 241.734375 169.96875 C 242.304688 170.539062 242.84375 171.132812 243.351562 171.753906 C 243.859375 172.375 244.339844 173.019531 244.785156 173.691406 C 245.230469 174.359375 245.644531 175.046875 246.023438 175.757812 C 246.402344 176.464844 246.746094 177.191406 247.054688 177.933594 C 247.359375 178.679688 247.632812 179.433594 247.863281 180.203125 C 248.097656 180.972656 248.292969 181.753906 248.449219 182.542969 C 248.605469 183.332031 248.722656 184.125 248.800781 184.925781 C 248.882812 185.726562 248.921875 186.527344 248.921875 187.332031 Z M 248.921875 187.332031 " fill-opacity="1" fill-rule="nonzero"/><path fill="rgb(0%, 39.99939%, 100%)" d="M 242.019531 187.332031 C 242.019531 187.910156 241.992188 188.488281 241.933594 189.0625 C 241.878906 189.636719 241.792969 190.207031 241.679688 190.773438 C 241.570312 191.34375 241.429688 191.902344 241.261719 192.457031 C 241.09375 193.007812 240.898438 193.550781 240.679688 194.085938 C 240.457031 194.621094 240.210938 195.140625 239.9375 195.652344 C 239.664062 196.160156 239.371094 196.65625 239.046875 197.136719 C 238.726562 197.617188 238.382812 198.082031 238.015625 198.527344 C 237.652344 198.976562 237.265625 199.402344 236.855469 199.8125 C 236.445312 200.21875 236.019531 200.609375 235.574219 200.976562 C 235.125 201.339844 234.664062 201.6875 234.183594 202.007812 C 233.703125 202.328125 233.207031 202.625 232.699219 202.898438 C 232.191406 203.167969 231.667969 203.417969 231.132812 203.636719 C 230.601562 203.859375 230.058594 204.054688 229.503906 204.222656 C 228.953125 204.390625 228.394531 204.527344 227.828125 204.640625 C 227.261719 204.753906 226.6875 204.839844 226.113281 204.894531 C 225.539062 204.953125 224.964844 204.980469 224.386719 204.980469 C 223.808594 204.980469 223.230469 204.953125 222.65625 204.894531 C 222.082031 204.839844 221.511719 204.753906 220.945312 204.640625 C 220.378906 204.527344 219.820312 204.390625 219.265625 204.222656 C 218.714844 204.054688 218.171875 203.859375 217.636719 203.636719 C 217.105469 203.417969 216.582031 203.167969 216.074219 202.898438 C 215.5625 202.625 215.070312 202.328125 214.589844 202.007812 C 214.109375 201.6875 213.644531 201.339844 213.199219 200.976562 C 212.753906 200.609375 212.324219 200.21875 211.917969 199.8125 C 211.507812 199.402344 211.121094 198.976562 210.753906 198.527344 C 210.386719 198.082031 210.042969 197.617188 209.722656 197.136719 C 209.402344 196.65625 209.105469 196.160156 208.835938 195.652344 C 208.5625 195.140625 208.316406 194.621094 208.09375 194.085938 C 207.875 193.550781 207.679688 193.007812 207.511719 192.457031 C 207.34375 191.902344 207.203125 191.34375 207.089844 190.773438 C 206.976562 190.207031 206.894531 189.636719 206.835938 189.0625 C 206.78125 188.488281 206.75 187.910156 206.75 187.332031 C 206.75 186.753906 206.78125 186.175781 206.835938 185.601562 C 206.894531 185.027344 206.976562 184.457031 207.089844 183.890625 C 207.203125 183.320312 207.34375 182.761719 207.511719 182.207031 C 207.679688 181.65625 207.875 181.113281 208.09375 180.578125 C 208.316406 180.042969 208.5625 179.523438 208.835938 179.011719 C 209.105469 178.503906 209.402344 178.007812 209.722656 177.527344 C 210.042969 177.046875 210.386719 176.582031 210.753906 176.136719 C 211.121094 175.6875 211.507812 175.261719 211.917969 174.851562 C 212.324219 174.445312 212.753906 174.054688 213.199219 173.6875 C 213.644531 173.324219 214.109375 172.980469 214.589844 172.65625 C 215.070312 172.335938 215.5625 172.039062 216.074219 171.765625 C 216.582031 171.496094 217.105469 171.246094 217.636719 171.027344 C 218.171875 170.804688 218.714844 170.609375 219.265625 170.441406 C 219.820312 170.273438 220.378906 170.136719 220.945312 170.023438 C 221.511719 169.910156 222.082031 169.824219 222.65625 169.769531 C 223.230469 169.710938 223.808594 169.683594 224.386719 169.683594 C 224.964844 169.683594 225.539062 169.710938 226.113281 169.769531 C 226.6875 169.824219 227.261719 169.910156 227.828125 170.023438 C 228.394531 170.136719 228.953125 170.273438 229.503906 170.441406 C 230.058594 170.609375 230.601562 170.804688 231.132812 171.027344 C 231.667969 171.246094 232.191406 171.496094 232.699219 171.765625 C 233.207031 172.039062 233.703125 172.335938 234.183594 172.65625 C 234.664062 172.980469 235.125 173.324219 235.574219 173.6875 C 236.019531 174.054688 236.445312 174.445312 236.855469 174.851562 C 237.265625 175.261719 237.652344 175.6875 238.015625 176.136719 C 238.382812 176.582031 238.726562 177.046875 239.046875 177.527344 C 239.371094 178.007812 239.664062 178.503906 239.9375 179.011719 C 240.210938 179.523438 240.457031 180.042969 240.679688 180.578125 C 240.898438 181.113281 241.09375 181.65625 241.261719 182.207031 C 241.429688 182.761719 241.570312 183.320312 241.679688 183.890625 C 241.792969 184.457031 241.878906 185.027344 241.933594 185.601562 C 241.992188 186.175781 242.019531 186.753906 242.019531 187.332031 Z M 242.019531 187.332031 " fill-opacity="1" fill-rule="nonzero"/><path fill="rgb(96.078491%, 97.24884%, 98.039246%)" d="M 238.566406 174.675781 C 238.566406 175.179688 238.519531 175.675781 238.417969 176.171875 C 238.320312 176.664062 238.175781 177.144531 237.984375 177.609375 C 237.789062 178.074219 237.554688 178.519531 237.273438 178.9375 C 236.996094 179.355469 236.675781 179.742188 236.320312 180.101562 C 235.964844 180.457031 235.578125 180.773438 235.160156 181.054688 C 234.742188 181.335938 234.300781 181.570312 233.835938 181.761719 C 233.367188 181.957031 232.890625 182.101562 232.394531 182.199219 C 231.902344 182.296875 231.402344 182.347656 230.898438 182.347656 C 230.398438 182.347656 229.898438 182.296875 229.402344 182.199219 C 228.910156 182.101562 228.429688 181.957031 227.964844 181.761719 C 227.5 181.570312 227.058594 181.335938 226.640625 181.054688 C 226.222656 180.773438 225.835938 180.457031 225.480469 180.101562 C 225.121094 179.742188 224.804688 179.355469 224.523438 178.9375 C 224.246094 178.519531 224.007812 178.074219 223.816406 177.609375 C 223.625 177.144531 223.476562 176.664062 223.378906 176.171875 C 223.28125 175.675781 223.234375 175.179688 223.234375 174.675781 C 223.234375 174.171875 223.28125 173.671875 223.378906 173.175781 C 223.476562 172.683594 223.625 172.203125 223.816406 171.738281 C 224.007812 171.273438 224.246094 170.828125 224.523438 170.410156 C 224.804688 169.992188 225.121094 169.605469 225.480469 169.246094 C 225.835938 168.890625 226.222656 168.574219 226.640625 168.292969 C 227.058594 168.015625 227.5 167.777344 227.964844 167.585938 C 228.429688 167.390625 228.910156 167.246094 229.402344 167.148438 C 229.898438 167.050781 230.398438 167 230.898438 167 C 231.402344 167 231.902344 167.050781 232.394531 167.148438 C 232.890625 167.246094 233.367188 167.390625 233.835938 167.585938 C 234.300781 167.777344 234.742188 168.015625 235.160156 168.292969 C 235.578125 168.574219 235.964844 168.890625 236.320312 169.246094 C 236.675781 169.605469 236.996094 169.992188 237.273438 170.410156 C 237.554688 170.828125 237.789062 171.273438 237.984375 171.738281 C 238.175781 172.203125 238.320312 172.683594 238.417969 173.175781 C 238.519531 173.671875 238.566406 174.171875 238.566406 174.675781 Z M 238.566406 174.675781 " fill-opacity="1" fill-rule="nonzero"/><path fill="rgb(96.078491%, 97.24884%, 98.039246%)" d="M 180.105469 187.332031 C 180.105469 188.667969 180.085938 190 180.046875 191.332031 C 180.007812 192.664062 179.949219 193.996094 179.871094 195.324219 C 179.792969 196.652344 179.695312 197.976562 179.578125 199.296875 C 179.460938 200.613281 179.324219 201.929688 179.171875 203.238281 C 179.015625 204.546875 178.839844 205.847656 178.644531 207.140625 C 178.453125 208.4375 178.238281 209.722656 178.007812 211 C 177.773438 212.277344 177.523438 213.542969 177.253906 214.796875 C 176.988281 216.054688 176.699219 217.300781 176.394531 218.53125 C 176.089844 219.765625 175.765625 220.984375 175.425781 222.191406 C 175.082031 223.398438 174.722656 224.589844 174.347656 225.765625 C 173.972656 226.941406 173.578125 228.101562 173.167969 229.246094 C 172.757812 230.390625 172.328125 231.519531 171.886719 232.628906 C 171.441406 233.738281 170.984375 234.828125 170.507812 235.898438 C 170.03125 236.972656 169.542969 238.023438 169.035156 239.054688 C 168.527344 240.085938 168.007812 241.09375 167.472656 242.082031 C 166.933594 243.074219 166.382812 244.039062 165.820312 244.980469 C 165.253906 245.925781 164.675781 246.84375 164.085938 247.742188 C 163.496094 248.636719 162.890625 249.507812 162.273438 250.355469 C 161.65625 251.203125 161.027344 252.023438 160.386719 252.816406 C 159.742188 253.613281 159.089844 254.378906 158.425781 255.121094 C 157.765625 255.863281 157.089844 256.574219 156.40625 257.261719 C 155.71875 257.949219 155.027344 258.605469 154.320312 259.234375 C 153.617188 259.863281 152.90625 260.464844 152.183594 261.035156 C 151.460938 261.605469 150.730469 262.144531 149.996094 262.65625 C 149.257812 263.164062 148.511719 263.644531 147.761719 264.09375 C 147.007812 264.546875 146.25 264.964844 145.488281 265.351562 C 144.722656 265.738281 143.953125 266.09375 143.179688 266.417969 C 142.40625 266.742188 141.625 267.035156 140.84375 267.292969 C 140.058594 267.554688 139.273438 267.78125 138.484375 267.980469 C 137.695312 268.175781 136.902344 268.339844 136.109375 268.46875 C 135.3125 268.597656 134.515625 268.699219 133.71875 268.761719 C 132.921875 268.828125 132.125 268.863281 131.328125 268.863281 C 130.527344 268.863281 129.730469 268.828125 128.933594 268.761719 C 128.136719 268.699219 127.339844 268.597656 126.546875 268.46875 C 125.75 268.339844 124.957031 268.175781 124.167969 267.980469 C 123.378906 267.78125 122.59375 267.554688 121.808594 267.292969 C 121.027344 267.035156 120.25 266.742188 119.472656 266.417969 C 118.699219 266.09375 117.929688 265.738281 117.167969 265.351562 C 116.402344 264.964844 115.644531 264.546875 114.894531 264.09375 C 114.140625 263.644531 113.398438 263.164062 112.660156 262.65625 C 111.921875 262.144531 111.191406 261.605469 110.46875 261.035156 C 109.75 260.464844 109.035156 259.863281 108.332031 259.234375 C 107.628906 258.605469 106.933594 257.949219 106.25 257.261719 C 105.5625 256.574219 104.890625 255.863281 104.226562 255.121094 C 103.5625 254.378906 102.910156 253.613281 102.269531 252.816406 C 101.625 252.023438 100.996094 251.203125 100.378906 250.355469 C 99.761719 249.507812 99.160156 248.636719 98.566406 247.742188 C 97.976562 246.84375 97.398438 245.925781 96.832031 244.980469 C 96.269531 244.039062 95.71875 243.074219 95.183594 242.082031 C 94.644531 241.09375 94.125 240.085938 93.617188 239.054688 C 93.113281 238.023438 92.621094 236.972656 92.144531 235.898438 C 91.667969 234.828125 91.210938 233.738281 90.765625 232.628906 C 90.324219 231.519531 89.894531 230.390625 89.484375 229.246094 C 89.074219 228.101562 88.683594 226.941406 88.304688 225.765625 C 87.929688 224.589844 87.570312 223.398438 87.230469 222.191406 C 86.886719 220.984375 86.566406 219.765625 86.257812 218.53125 C 85.953125 217.300781 85.667969 216.054688 85.398438 214.796875 C 85.128906 213.542969 84.878906 212.277344 84.644531 211 C 84.414062 209.722656 84.203125 208.4375 84.007812 207.140625 C 83.8125 205.847656 83.640625 204.546875 83.484375 203.238281 C 83.328125 201.929688 83.191406 200.613281 83.074219 199.296875 C 82.957031 197.976562 82.859375 196.652344 82.78125 195.324219 C 82.703125 193.996094 82.644531 192.664062 82.605469 191.332031 C 82.566406 190 82.546875 188.667969 82.546875 187.332031 C 82.546875 185.996094 82.566406 184.664062 82.605469 183.332031 C 82.644531 182 82.703125 180.667969 82.78125 179.339844 C 82.859375 178.011719 82.957031 176.6875 83.074219 175.371094 C 83.191406 174.050781 83.328125 172.734375 83.484375 171.425781 C 83.640625 170.117188 83.8125 168.816406 84.007812 167.523438 C 84.203125 166.226562 84.414062 164.941406 84.644531 163.664062 C 84.878906 162.386719 85.128906 161.121094 85.398438 159.867188 C 85.667969 158.609375 85.953125 157.363281 86.257812 156.132812 C 86.566406 154.898438 86.886719 153.679688 87.230469 152.472656 C 87.570312 151.269531 87.929688 150.078125 88.304688 148.898438 C 88.683594 147.722656 89.074219 146.5625 89.484375 145.417969 C 89.894531 144.273438 90.324219 143.144531 90.765625 142.035156 C 91.210938 140.925781 91.667969 139.835938 92.144531 138.765625 C 92.621094 137.695312 93.113281 136.640625 93.617188 135.609375 C 94.125 134.578125 94.644531 133.570312 95.183594 132.582031 C 95.71875 131.589844 96.269531 130.625 96.832031 129.683594 C 97.398438 128.738281 97.976562 127.820312 98.566406 126.921875 C 99.160156 126.027344 99.761719 125.15625 100.378906 124.308594 C 100.996094 123.460938 101.625 122.640625 102.269531 121.847656 C 102.910156 121.050781 103.5625 120.285156 104.226562 119.542969 C 104.890625 118.800781 105.5625 118.089844 106.25 117.402344 C 106.933594 116.714844 107.628906 116.058594 108.332031 115.429688 C 109.035156 114.800781 109.75 114.199219 110.46875 113.628906 C 111.191406 113.058594 111.921875 112.519531 112.660156 112.007812 C 113.398438 111.5 114.140625 111.019531 114.894531 110.570312 C 115.644531 110.121094 116.402344 109.699219 117.167969 109.3125 C 117.929688 108.925781 118.699219 108.570312 119.472656 108.246094 C 120.25 107.921875 121.027344 107.628906 121.808594 107.371094 C 122.59375 107.109375 123.378906 106.882812 124.167969 106.683594 C 124.957031 106.488281 125.75 106.328125 126.546875 106.195312 C 127.339844 106.066406 128.136719 105.964844 128.933594 105.902344 C 129.730469 105.835938 130.527344 105.804688 131.328125 105.804688 C 132.125 105.804688 132.921875 105.835938 133.71875 105.902344 C 134.515625 105.964844 135.3125 106.066406 136.109375 106.195312 C 136.902344 106.328125 137.695312 106.488281 138.484375 106.683594 C 139.273438 106.882812 140.058594 107.109375 140.84375 107.371094 C 141.625 107.628906 142.40625 107.921875 143.179688 108.246094 C 143.953125 108.570312 144.722656 108.925781 145.488281 109.3125 C 146.25 109.699219 147.007812 110.121094 147.761719 110.570312 C 148.511719 111.019531 149.257812 111.5 149.996094 112.007812 C 150.730469 112.519531 151.460938 113.058594 152.183594 113.628906 C 152.90625 114.199219 153.617188 114.800781 154.320312 115.429688 C 155.027344 116.058594 155.71875 116.714844 156.40625 117.402344 C 157.089844 118.089844 157.765625 118.800781 158.425781 119.542969 C 159.089844 120.285156 159.742188 121.050781 160.386719 121.847656 C 161.027344 122.640625 161.65625 123.460938 162.273438 124.308594 C 162.890625 125.15625 163.496094 126.027344 164.085938 126.921875 C 164.675781 127.820312 165.253906 128.738281 165.820312 129.683594 C 166.382812 130.625 166.933594 131.589844 167.472656 132.582031 C 168.007812 133.570312 168.527344 134.578125 169.035156 135.609375 C 169.542969 136.640625 170.03125 137.695312 170.507812 138.765625 C 170.984375 139.835938 171.441406 140.925781 171.886719 142.035156 C 172.328125 143.144531 172.757812 144.273438 173.167969 145.417969 C 173.578125 146.5625 173.972656 147.722656 174.347656 148.898438 C 174.722656 150.078125 175.082031 151.269531 175.425781 152.472656 C 175.765625 153.679688 176.089844 154.898438 176.394531 156.132812 C 176.699219 157.363281 176.988281 158.609375 177.253906 159.867188 C 177.523438 161.121094 177.773438 162.386719 178.007812 163.664062 C 178.238281 164.941406 178.453125 166.226562 178.644531 167.523438 C 178.839844 168.816406 179.015625 170.117188 179.171875 171.425781 C 179.324219 172.734375 179.460938 174.050781 179.578125 175.371094 C 179.695312 176.6875 179.792969 178.011719 179.871094 179.339844 C 179.949219 180.667969 180.007812 182 180.046875 183.332031 C 180.085938 184.664062 180.105469 185.996094 180.105469 187.332031 Z M 180.105469 187.332031 " fill-opacity="1" fill-rule="nonzero"/><g clip-path="url(#clip-3)"><path fill="rgb(88.238525%, 90.979004%, 92.939758%)" d="M 131.328125 273.464844 C 101.394531 273.464844 77.945312 235.632812 77.945312 187.332031 C 77.945312 139.03125 101.394531 101.199219 131.328125 101.199219 C 161.257812 101.199219 184.707031 139.03125 184.707031 187.332031 C 184.707031 235.632812 161.257812 273.464844 131.328125 273.464844 Z M 131.328125 110.40625 C 106.964844 110.40625 87.144531 144.914062 87.144531 187.332031 C 87.144531 229.75 106.964844 264.257812 131.328125 264.257812 C 155.6875 264.257812 175.507812 229.75 175.507812 187.332031 C 175.507812 144.914062 155.6875 110.40625 131.328125 110.40625 Z M 131.328125 110.40625 " fill-opacity="1" fill-rule="nonzero"/></g><path fill="rgb(0%, 0%, 0%)" d="M 136.214844 187.332031 C 136.214844 188.136719 136.175781 188.9375 136.097656 189.738281 C 136.019531 190.539062 135.902344 191.332031 135.742188 192.121094 C 135.585938 192.910156 135.390625 193.691406 135.160156 194.460938 C 134.925781 195.230469 134.65625 195.984375 134.347656 196.730469 C 134.039062 197.472656 133.695312 198.199219 133.316406 198.90625 C 132.9375 199.617188 132.527344 200.304688 132.082031 200.972656 C 131.632812 201.644531 131.15625 202.289062 130.644531 202.910156 C 130.136719 203.53125 129.597656 204.125 129.027344 204.695312 C 128.460938 205.265625 127.867188 205.804688 127.246094 206.3125 C 126.625 206.824219 125.980469 207.300781 125.3125 207.75 C 124.644531 208.195312 123.953125 208.609375 123.246094 208.988281 C 122.539062 209.367188 121.8125 209.710938 121.070312 210.019531 C 120.328125 210.324219 119.570312 210.597656 118.800781 210.828125 C 118.035156 211.0625 117.253906 211.257812 116.46875 211.414062 C 115.679688 211.574219 114.886719 211.691406 114.085938 211.769531 C 113.285156 211.847656 112.484375 211.886719 111.679688 211.886719 C 110.878906 211.886719 110.074219 211.847656 109.277344 211.769531 C 108.476562 211.691406 107.683594 211.574219 106.894531 211.414062 C 106.105469 211.257812 105.328125 211.0625 104.558594 210.828125 C 103.789062 210.597656 103.035156 210.324219 102.292969 210.019531 C 101.550781 209.710938 100.824219 209.367188 100.113281 208.988281 C 99.40625 208.609375 98.71875 208.195312 98.050781 207.75 C 97.382812 207.300781 96.738281 206.824219 96.117188 206.3125 C 95.496094 205.804688 94.898438 205.265625 94.332031 204.695312 C 93.765625 204.125 93.226562 203.53125 92.714844 202.910156 C 92.207031 202.289062 91.726562 201.644531 91.28125 200.972656 C 90.835938 200.304688 90.421875 199.617188 90.042969 198.90625 C 89.664062 198.199219 89.320312 197.472656 89.011719 196.730469 C 88.707031 195.984375 88.4375 195.230469 88.203125 194.460938 C 87.96875 193.691406 87.773438 192.910156 87.617188 192.121094 C 87.460938 191.332031 87.34375 190.539062 87.265625 189.738281 C 87.183594 188.9375 87.144531 188.136719 87.144531 187.332031 C 87.144531 186.527344 87.183594 185.726562 87.265625 184.925781 C 87.34375 184.125 87.460938 183.332031 87.617188 182.542969 C 87.773438 181.753906 87.96875 180.972656 88.203125 180.203125 C 88.4375 179.433594 88.707031 178.679688 89.011719 177.933594 C 89.320312 177.191406 89.664062 176.464844 90.042969 175.757812 C 90.421875 175.046875 90.835938 174.359375 91.28125 173.691406 C 91.726562 173.019531 92.207031 172.375 92.714844 171.753906 C 93.226562 171.132812 93.765625 170.539062 94.332031 169.96875 C 94.898438 169.398438 95.496094 168.859375 96.117188 168.351562 C 96.738281 167.839844 97.382812 167.363281 98.050781 166.914062 C 98.71875 166.46875 99.40625 166.054688 100.113281 165.675781 C 100.824219 165.296875 101.550781 164.953125 102.292969 164.644531 C 103.035156 164.339844 103.789062 164.066406 104.558594 163.835938 C 105.328125 163.601562 106.105469 163.40625 106.894531 163.25 C 107.683594 163.09375 108.476562 162.972656 109.277344 162.894531 C 110.074219 162.816406 110.878906 162.777344 111.679688 162.777344 C 112.484375 162.777344 113.285156 162.816406 114.085938 162.894531 C 114.886719 162.972656 115.679688 163.09375 116.46875 163.25 C 117.253906 163.40625 118.035156 163.601562 118.800781 163.835938 C 119.570312 164.066406 120.328125 164.339844 121.070312 164.644531 C 121.8125 164.953125 122.539062 165.296875 123.246094 165.675781 C 123.953125 166.054688 124.644531 166.46875 125.3125 166.914062 C 125.980469 167.363281 126.625 167.839844 127.246094 168.351562 C 127.867188 168.859375 128.460938 169.398438 129.027344 169.96875 C 129.597656 170.539062 130.136719 171.132812 130.644531 171.753906 C 131.15625 172.375 131.632812 173.019531 132.082031 173.691406 C 132.527344 174.359375 132.9375 175.046875 133.316406 175.757812 C 133.695312 176.464844 134.039062 177.191406 134.347656 177.933594 C 134.65625 178.679688 134.925781 179.433594 135.160156 180.203125 C 135.390625 180.972656 135.585938 181.753906 135.742188 182.542969 C 135.902344 183.332031 136.019531 184.125 136.097656 184.925781 C 136.175781 185.726562 136.214844 186.527344 136.214844 187.332031 Z M 136.214844 187.332031 " fill-opacity="1" fill-rule="nonzero"/><path fill="rgb(0%, 39.99939%, 100%)" d="M 129.316406 187.332031 C 129.316406 187.910156 129.285156 188.488281 129.230469 189.0625 C 129.171875 189.636719 129.089844 190.207031 128.976562 190.773438 C 128.863281 191.34375 128.722656 191.902344 128.554688 192.457031 C 128.386719 193.007812 128.195312 193.550781 127.972656 194.085938 C 127.75 194.621094 127.503906 195.140625 127.234375 195.652344 C 126.960938 196.160156 126.664062 196.65625 126.34375 197.136719 C 126.023438 197.617188 125.679688 198.082031 125.3125 198.527344 C 124.945312 198.976562 124.558594 199.402344 124.148438 199.8125 C 123.742188 200.21875 123.3125 200.609375 122.867188 200.976562 C 122.421875 201.339844 121.957031 201.6875 121.476562 202.007812 C 120.996094 202.328125 120.503906 202.625 119.992188 202.898438 C 119.484375 203.167969 118.960938 203.417969 118.429688 203.636719 C 117.894531 203.859375 117.351562 204.054688 116.800781 204.222656 C 116.246094 204.390625 115.6875 204.527344 115.121094 204.640625 C 114.554688 204.753906 113.984375 204.839844 113.410156 204.894531 C 112.835938 204.953125 112.257812 204.980469 111.679688 204.980469 C 111.101562 204.980469 110.527344 204.953125 109.953125 204.894531 C 109.378906 204.839844 108.808594 204.753906 108.242188 204.640625 C 107.671875 204.527344 107.113281 204.390625 106.5625 204.222656 C 106.007812 204.054688 105.464844 203.859375 104.933594 203.636719 C 104.398438 203.417969 103.878906 203.167969 103.367188 202.898438 C 102.859375 202.625 102.363281 202.328125 101.882812 202.007812 C 101.402344 201.6875 100.941406 201.339844 100.492188 200.976562 C 100.046875 200.609375 99.621094 200.21875 99.210938 199.8125 C 98.804688 199.402344 98.414062 198.976562 98.050781 198.527344 C 97.683594 198.082031 97.339844 197.617188 97.019531 197.136719 C 96.699219 196.65625 96.402344 196.160156 96.128906 195.652344 C 95.855469 195.140625 95.609375 194.621094 95.386719 194.085938 C 95.167969 193.550781 94.972656 193.007812 94.804688 192.457031 C 94.636719 191.902344 94.496094 191.34375 94.386719 190.773438 C 94.273438 190.207031 94.1875 189.636719 94.132812 189.0625 C 94.074219 188.488281 94.046875 187.910156 94.046875 187.332031 C 94.046875 186.753906 94.074219 186.175781 94.132812 185.601562 C 94.1875 185.027344 94.273438 184.457031 94.386719 183.890625 C 94.496094 183.320312 94.636719 182.761719 94.804688 182.207031 C 94.972656 181.65625 95.167969 181.113281 95.386719 180.578125 C 95.609375 180.042969 95.855469 179.523438 96.128906 179.011719 C 96.402344 178.503906 96.699219 178.007812 97.019531 177.527344 C 97.339844 177.046875 97.683594 176.582031 98.050781 176.136719 C 98.414062 175.6875 98.804688 175.261719 99.210938 174.851562 C 99.621094 174.445312 100.046875 174.054688 100.492188 173.6875 C 100.941406 173.324219 101.402344 172.980469 101.882812 172.65625 C 102.363281 172.335938 102.859375 172.039062 103.367188 171.765625 C 103.878906 171.496094 104.398438 171.246094 104.933594 171.027344 C 105.464844 170.804688 106.007812 170.609375 106.5625 170.441406 C 107.113281 170.273438 107.671875 170.136719 108.242188 170.023438 C 108.808594 169.910156 109.378906 169.824219 109.953125 169.769531 C 110.527344 169.710938 111.101562 169.683594 111.679688 169.683594 C 112.257812 169.683594 112.835938 169.710938 113.410156 169.769531 C 113.984375 169.824219 114.554688 169.910156 115.121094 170.023438 C 115.6875 170.136719 116.246094 170.273438 116.800781 170.441406 C 117.351562 170.609375 117.894531 170.804688 118.429688 171.027344 C 118.960938 171.246094 119.484375 171.496094 119.992188 171.765625 C 120.503906 172.039062 120.996094 172.335938 121.476562 172.65625 C 121.957031 172.980469 122.421875 173.324219 122.867188 173.6875 C 123.3125 174.054688 123.742188 174.445312 124.148438 174.851562 C 124.558594 175.261719 124.945312 175.6875 125.3125 176.136719 C 125.679688 176.582031 126.023438 177.046875 126.34375 177.527344 C 126.664062 178.007812 126.960938 178.503906 127.234375 179.011719 C 127.503906 179.523438 127.75 180.042969 127.972656 180.578125 C 128.195312 181.113281 128.386719 181.65625 128.554688 182.207031 C 128.722656 182.761719 128.863281 183.320312 128.976562 183.890625 C 129.089844 184.457031 129.171875 185.027344 129.230469 185.601562 C 129.285156 186.175781 129.316406 186.753906 129.316406 187.332031 Z M 129.316406 187.332031 " fill-opacity="1" fill-rule="nonzero"/><path fill="rgb(96.078491%, 97.24884%, 98.039246%)" d="M 125.867188 174.675781 C 125.867188 175.179688 125.820312 175.675781 125.71875 176.171875 C 125.621094 176.664062 125.476562 177.144531 125.285156 177.609375 C 125.089844 178.074219 124.855469 178.519531 124.574219 178.9375 C 124.296875 179.355469 123.976562 179.742188 123.621094 180.101562 C 123.265625 180.457031 122.878906 180.773438 122.460938 181.054688 C 122.042969 181.335938 121.601562 181.570312 121.132812 181.761719 C 120.667969 181.957031 120.191406 182.101562 119.695312 182.199219 C 119.203125 182.296875 118.703125 182.347656 118.199219 182.347656 C 117.695312 182.347656 117.199219 182.296875 116.703125 182.199219 C 116.210938 182.101562 115.730469 181.957031 115.265625 181.761719 C 114.800781 181.570312 114.359375 181.335938 113.941406 181.054688 C 113.523438 180.773438 113.136719 180.457031 112.777344 180.101562 C 112.421875 179.742188 112.105469 179.355469 111.824219 178.9375 C 111.546875 178.519531 111.308594 178.074219 111.117188 177.609375 C 110.925781 177.144531 110.777344 176.664062 110.679688 176.171875 C 110.582031 175.675781 110.535156 175.179688 110.535156 174.675781 C 110.535156 174.171875 110.582031 173.671875 110.679688 173.175781 C 110.777344 172.683594 110.925781 172.203125 111.117188 171.738281 C 111.308594 171.273438 111.546875 170.828125 111.824219 170.410156 C 112.105469 169.992188 112.421875 169.605469 112.777344 169.246094 C 113.136719 168.890625 113.523438 168.574219 113.941406 168.292969 C 114.359375 168.015625 114.800781 167.777344 115.265625 167.585938 C 115.730469 167.390625 116.210938 167.246094 116.703125 167.148438 C 117.199219 167.050781 117.695312 167 118.199219 167 C 118.703125 167 119.203125 167.050781 119.695312 167.148438 C 120.191406 167.246094 120.667969 167.390625 121.132812 167.585938 C 121.601562 167.777344 122.042969 168.015625 122.460938 168.292969 C 122.878906 168.574219 123.265625 168.890625 123.621094 169.246094 C 123.976562 169.605469 124.296875 169.992188 124.574219 170.410156 C 124.855469 170.828125 125.089844 171.273438 125.285156 171.738281 C 125.476562 172.203125 125.621094 172.683594 125.71875 173.175781 C 125.820312 173.671875 125.867188 174.171875 125.867188 174.675781 Z M 125.867188 174.675781 " fill-opacity="1" fill-rule="nonzero"/></svg>